<svg width="119" height="102" xmlns="http://www.w3.org/2000/svg" xmlns:xlink="http://www.w3.org/1999/xlink" overflow="hidden"><defs><clipPath id="clip0"><path d="M353 173 472 173 472 275 353 275Z" fill-rule="evenodd" clip-rule="evenodd"/></clipPath><clipPath id="clip1"><path d="M354 174 471 174 471 274 354 274Z" fill-rule="evenodd" clip-rule="evenodd"/></clipPath><clipPath id="clip2"><path d="M354 174 471 174 471 274 354 274Z" fill-rule="evenodd" clip-rule="evenodd"/></clipPath></defs><g clip-path="url(#clip0)" transform="translate(-353 -173)"><g clip-path="url(#clip1)"><g clip-path="url(#clip2)"><path d="M67.0283 300.457 67.0283 248.874 227.863 248.874 388.698 248.874 388.698 300.457 388.698 352.039 227.863 352.039 67.0283 352.039ZM332.02 345.578C335.467 342.019 337.374 341.146 341.708 341.146L345.402 341.146 341.921 344.67 338.441 348.194 344.166 348.194 349.891 348.194 353.275 344.852 356.659 341.51 356.659 320.182 356.659 298.855 350.614 298.855C347.289 298.855 343.9 298.593 343.085 298.274 342.269 297.955 340.304 295.942 338.718 293.802 337.132 291.662 335.69 289.914 335.514 289.917 335.337 289.92 333.954 292.631 332.44 295.941L329.686 301.958 338.638 320.27 347.589 338.583 343.616 338.583C341.083 338.583 339.135 338.227 338.24 337.6 337.468 337.059 333.439 330 329.287 321.914 325.134 313.827 321.568 307.205 321.362 307.198 321.156 307.19 320.635 310.861 320.204 315.355 319.099 326.889 320.573 326.043 301.162 326.28L285.426 326.472 285.865 324.998C286.106 324.188 287.211 322.593 288.321 321.455 290.836 318.875 294.575 318.078 304.16 318.078 312.215 318.078 311.507 318.846 312.128 309.427 312.69 300.887 313.358 298.384 317.049 290.975L320.177 284.698 315.859 284.888 311.541 285.078 307.957 290.845C304.774 295.967 304.165 296.612 302.507 296.612 301.161 296.612 300.378 296.144 299.701 294.937 298.803 293.338 298.923 292.989 302.37 287.213 307.785 278.138 306.57 278.704 321.121 278.472 331.345 278.309 333.845 278.448 335.433 279.269 336.491 279.816 339.321 282.847 341.722 286.003L346.087 291.743 351.373 291.775 356.659 291.806 356.659 272.256 356.659 252.706 325.421 252.873 294.184 253.039 294.017 284.918C293.853 316.525 293.84 316.796 292.544 316.796 289.227 316.796 285.429 320.337 283.353 325.365 282.79 326.73 282.329 327.955 282.329 328.088 282.329 328.221 284.924 328.33 288.096 328.33L293.863 328.33 293.863 335.197 293.863 342.063 290.844 345.129 287.824 348.195 308.655 348.195 329.487 348.195ZM330.593 275.425C328.588 274.405 326.543 271.19 326.543 269.059 326.543 264.999 331.141 261.208 335.153 261.96 339.064 262.694 341.859 267.288 340.641 270.979 339.18 275.405 334.567 277.446 330.593 275.425ZM145.844 327.049 145.844 321.282 129.184 321.282 112.523 321.282 112.523 313.592 112.523 305.903 127.261 305.903 141.999 305.903 141.999 300.469 141.999 295.034 127.422 294.862 112.844 294.69 112.66 288.442 112.477 282.194 128.52 282.194 144.562 282.194 144.562 276.748 144.562 271.301 122.455 271.301 100.349 271.301 100.349 302.059 100.349 332.816 123.096 332.816 145.844 332.816ZM243.972 332.175C245.021 332.175 245.164 331.636 245.164 327.69L245.164 323.204 242.326 323.204C237.539 323.204 237.475 323.009 237.475 308.421L237.475 295.651 241.32 295.651 245.164 295.651 245.164 291.165 245.164 286.68 241.32 286.68 237.475 286.68 237.475 280.593 237.475 274.505 231.708 274.505 225.941 274.505 225.941 280.593 225.941 286.68 222.737 286.68 219.533 286.68 219.533 291.165 219.533 295.651 222.737 295.651 225.941 295.651 225.941 310.999C225.941 327.323 226.169 328.774 229.027 330.647 231.017 331.951 236.231 332.809 239.967 332.447 241.514 332.298 243.316 332.175 243.972 332.175ZM167.706 327.209C169.206 324.478 170.923 321.429 171.521 320.434L172.607 318.625 176.36 325.4 180.113 332.175 187.328 332.175C191.296 332.175 194.543 332.039 194.543 331.872 194.543 331.706 191.21 326.477 187.138 320.251L179.732 308.933 186.817 298.269C190.714 292.403 193.902 287.386 193.902 287.12 193.902 286.854 190.804 286.718 187.017 286.818L180.131 287 177.239 292.126C175.648 294.946 174.034 297.784 173.653 298.433 173.053 299.456 172.465 298.748 169.266 293.147L165.572 286.68 158.523 286.68C152.782 286.68 151.537 286.845 151.814 287.567 152.001 288.055 154.411 291.877 157.169 296.06 159.927 300.243 162.966 304.867 163.921 306.336L165.659 309.006 158.559 319.774C154.654 325.697 151.318 330.91 151.146 331.359 150.904 331.99 152.44 332.175 157.905 332.175L164.977 332.175ZM213.125 309.427 213.125 286.68 207.358 286.68 201.591 286.68 201.591 309.427 201.591 332.175 207.358 332.175 213.125 332.175ZM213.125 276.107 213.125 270.66 207.358 270.66 201.591 270.66 201.591 276.107 201.591 281.554 207.358 281.554 213.125 281.554Z" transform="matrix(1.00152 0 -0 1 84.5995 -78.2548)"/></g></g></g></svg>